<?xml version="1.0" encoding="utf-8"?>
<!-- Generator: Adobe Illustrator 20.1.0, SVG Export Plug-In . SVG Version: 6.00 Build 0)  -->
<svg version="1.1" id="Layer_1" xmlns="http://www.w3.org/2000/svg" xmlns:xlink="http://www.w3.org/1999/xlink" x="0px" y="0px"
	 viewBox="0 0 171 171" style="enable-background:new 0 0 171 171;" xml:space="preserve">
<style type="text/css">
	.st0{fill:#FFFFFF;}
</style>
<g>
	<path class="st0" d="M56.8,113.6c-5,0-8.7-2-11-6v4.6h-17V35l17-7.6v29.1c2.7-3.8,6.7-5.8,12-5.8c7.2,0,13.1,2.9,17.8,8.6
		c4.7,5.7,7,13.3,7,22.8c0,10-2.3,17.8-6.9,23.2C71.1,110.8,64.8,113.6,56.8,113.6z M55,97.1c3.4,0,6.1-1.3,7.9-4
		c1.8-2.7,2.8-6.3,2.8-11c0-4.8-0.9-8.5-2.8-11c-1.8-2.6-4.5-3.9-7.9-3.9c-4,0-7,1.3-9.2,3.9v22.3C47.8,95.9,50.8,97.1,55,97.1z"/>
	<path class="st0" d="M125.1,112.1v-5.5c-3.8,4.6-9.2,6.9-16.4,6.9c-2.4,0-4.8-0.4-7-1.1c-2.3-0.7-4.5-1.9-6.6-3.6s-3.8-4-5.1-7
		c-1.3-3.1-1.9-6.6-1.9-10.7v-39h17v31.2c0,4.8,0.7,8.3,2.1,10.4c1.4,2.2,3.9,3.3,7.5,3.3c3.6,0,6.2-1.1,7.9-3.3
		c1.7-2.2,2.5-5.6,2.5-10.2V52.2h17v60H125.1z"/>
</g>
<rect x="28.8" y="129.7" class="st0" width="113.3" height="15.3"/>
<path class="st0" d="M156.1,14.9v141.2H14.9V14.9H156.1 M171,0h-11H11H0v11v149v11h11h149h11v-11V11V0L171,0z"/>
</svg>
